<svg xmlns="http://www.w3.org/2000/svg" width="17.5" height="20" viewBox="0 0 17.5 20">
  <path id="icon_User" data-name="icon User" d="M12.266-6.25a5.123,5.123,0,0,1,2.617.7A5.191,5.191,0,0,1,16.8-3.633a5.123,5.123,0,0,1,.7,2.617V.625a1.808,1.808,0,0,1-.547,1.328,1.808,1.808,0,0,1-1.328.547H1.875A1.808,1.808,0,0,1,.547,1.953,1.808,1.808,0,0,1,0,.625V-1.016A5.123,5.123,0,0,1,.7-3.633,5.191,5.191,0,0,1,2.617-5.547a5.123,5.123,0,0,1,2.617-.7,4.436,4.436,0,0,1,1.328.273q.547.156.9.234a6.585,6.585,0,0,0,1.289.117,6.585,6.585,0,0,0,1.289-.117q.352-.078.9-.234A4.436,4.436,0,0,1,12.266-6.25ZM16.25.625V-1.016a3.836,3.836,0,0,0-1.172-2.812A3.836,3.836,0,0,0,12.266-5a3.913,3.913,0,0,0-.977.2,8.245,8.245,0,0,1-2.539.43A8.245,8.245,0,0,1,6.211-4.8,3.913,3.913,0,0,0,5.234-5,3.836,3.836,0,0,0,2.422-3.828,3.836,3.836,0,0,0,1.25-1.016V.625a.6.6,0,0,0,.625.625h13.75A.6.6,0,0,0,16.25.625ZM8.75-7.5a4.958,4.958,0,0,1-2.52-.664A4.864,4.864,0,0,1,4.414-9.98,4.958,4.958,0,0,1,3.75-12.5a4.958,4.958,0,0,1,.664-2.52A4.864,4.864,0,0,1,6.23-16.836,4.958,4.958,0,0,1,8.75-17.5a4.958,4.958,0,0,1,2.52.664,4.864,4.864,0,0,1,1.816,1.816,4.958,4.958,0,0,1,.664,2.52,4.958,4.958,0,0,1-.664,2.52A4.864,4.864,0,0,1,11.27-8.164,4.958,4.958,0,0,1,8.75-7.5Zm0-8.75a3.616,3.616,0,0,0-2.656,1.094A3.616,3.616,0,0,0,5-12.5,3.616,3.616,0,0,0,6.094-9.844,3.616,3.616,0,0,0,8.75-8.75a3.616,3.616,0,0,0,2.656-1.094A3.616,3.616,0,0,0,12.5-12.5a3.616,3.616,0,0,0-1.094-2.656A3.616,3.616,0,0,0,8.75-16.25Z" transform="translate(0 17.5)"/>
</svg>
