<svg xmlns="http://www.w3.org/2000/svg" width="15.625" height="15.624" viewBox="0 0 15.625 15.624"><path d="M9.47-9.375l5.008-5.008,1.033-1.033a.391.391,0,0,0,0-.552l-1.105-1.105a.391.391,0,0,0-.552,0L7.812-11.032,1.772-17.073a.391.391,0,0,0-.552,0l-1.105,1.1a.391.391,0,0,0,0,.552L6.155-9.375.114-3.334a.391.391,0,0,0,0,.552l1.1,1.105a.391.391,0,0,0,.552,0L7.812-7.718,12.82-2.71l1.033,1.033a.391.391,0,0,0,.552,0L15.51-2.782a.391.391,0,0,0,0-.552Z" transform="translate(0 17.187)" fill="#e12d2d"/></svg>