<svg xmlns="http://www.w3.org/2000/svg" width="20" height="20" viewBox="0 0 20 20">
  <path id="Контур_226" data-name="Контур 226" d="M19.883,1.328A.422.422,0,0,1,20,1.641a.571.571,0,0,1-.117.352l-.391.352a.486.486,0,0,1-.352.156.371.371,0,0,1-.312-.156L13.789-2.7a.371.371,0,0,1-.156-.312V-3.4a8.014,8.014,0,0,1-2.52,1.582,8.02,8.02,0,0,1-2.988.566A7.891,7.891,0,0,1,4.043-2.344,8.209,8.209,0,0,1,1.094-5.293,7.891,7.891,0,0,1,0-9.375a7.891,7.891,0,0,1,1.094-4.082,8.209,8.209,0,0,1,2.949-2.949A7.891,7.891,0,0,1,8.125-17.5a7.891,7.891,0,0,1,4.082,1.094,8.209,8.209,0,0,1,2.949,2.949A7.891,7.891,0,0,1,16.25-9.375a8.02,8.02,0,0,1-.566,2.988A8.014,8.014,0,0,1,14.1-3.867h.391a.486.486,0,0,1,.352.156ZM8.125-2.5a6.767,6.767,0,0,0,3.457-.918,6.773,6.773,0,0,0,2.5-2.5A6.767,6.767,0,0,0,15-9.375a6.767,6.767,0,0,0-.918-3.457,6.773,6.773,0,0,0-2.5-2.5,6.767,6.767,0,0,0-3.457-.918,6.767,6.767,0,0,0-3.457.918,6.773,6.773,0,0,0-2.5,2.5A6.767,6.767,0,0,0,1.25-9.375a6.767,6.767,0,0,0,.918,3.457,6.773,6.773,0,0,0,2.5,2.5A6.767,6.767,0,0,0,8.125-2.5Z" transform="translate(0 17.5)"/>
</svg>
