<svg xmlns="http://www.w3.org/2000/svg" width="22.002" height="19.255" viewBox="0 0 22.002 19.255">
  <path id="Icon_Wish_list" data-name="Icon Wish list" d="M19.852-16.543a5.806,5.806,0,0,1,1.848,2.75,6.256,6.256,0,0,1,.15,3.287,5.7,5.7,0,0,1-1.568,2.857L11.988.945a1.351,1.351,0,0,1-1.977,0L1.719-7.605a5.954,5.954,0,0,1-1.568-2.9A6.256,6.256,0,0,1,.3-13.793a5.869,5.869,0,0,1,1.826-2.75,5.274,5.274,0,0,1,2.9-1.289,5.96,5.96,0,0,1,2.879.387,6.062,6.062,0,0,1,2.234,1.461l.859.9.859-.9a6.07,6.07,0,0,1,2.514-1.59,5.884,5.884,0,0,1,2.9-.215A5.179,5.179,0,0,1,19.852-16.543Zm-.559,7.949a4.515,4.515,0,0,0,1.182-2.127,4.662,4.662,0,0,0-.021-2.471,4.557,4.557,0,0,0-1.482-2.3,4.106,4.106,0,0,0-2.428-1.01,4.741,4.741,0,0,0-2.191.473A3.9,3.9,0,0,0,12.848-15L11-13.105,9.152-15a4.923,4.923,0,0,0-1.5-1.074,4.351,4.351,0,0,0-2.191-.43,4.106,4.106,0,0,0-2.428,1.01,4.557,4.557,0,0,0-1.482,2.3,4.662,4.662,0,0,0-.021,2.471A4.515,4.515,0,0,0,2.707-8.594L11,0Z" transform="translate(0.001 17.88)"/>
</svg>
