<svg xmlns="http://www.w3.org/2000/svg" width="24.75" height="19.25" viewBox="0 0 24.75 19.25">
  <path id="Icon_Cart" data-name="Icon Cart" d="M24.234-11a.5.5,0,0,1,.365.15.5.5,0,0,1,.15.365v.344a.5.5,0,0,1-.15.365.5.5,0,0,1-.365.15h-.687L22.258-.387A2.124,2.124,0,0,1,21.549.859a1.974,1.974,0,0,1-1.354.516H4.555A1.974,1.974,0,0,1,3.2.859,2.124,2.124,0,0,1,2.492-.387L1.2-9.625H.516a.5.5,0,0,1-.365-.15A.5.5,0,0,1,0-10.141v-.344a.5.5,0,0,1,.15-.365A.5.5,0,0,1,.516-11H3.824L9.8-17.66a.679.679,0,0,1,.494-.215.717.717,0,0,1,.494.193.612.612,0,0,1,.215.473.769.769,0,0,1-.172.494L5.672-11H19.078l-5.156-5.715a.769.769,0,0,1-.172-.494.612.612,0,0,1,.215-.473.717.717,0,0,1,.494-.193.679.679,0,0,1,.494.215L20.926-11ZM20.883-.6l1.246-9.023H2.621L3.867-.6a.716.716,0,0,0,.236.43A.658.658,0,0,0,4.555,0H20.2a.658.658,0,0,0,.451-.172A.716.716,0,0,0,20.883-.6Zm-7.82-6.617a.669.669,0,0,0-.193-.494.669.669,0,0,0-.494-.193.669.669,0,0,0-.494.193.669.669,0,0,0-.193.494v4.813a.669.669,0,0,0,.193.494.669.669,0,0,0,.494.193.669.669,0,0,0,.494-.193.669.669,0,0,0,.193-.494Zm4.813,0a.669.669,0,0,0-.193-.494.669.669,0,0,0-.494-.193.669.669,0,0,0-.494.193.669.669,0,0,0-.193.494v4.813a.669.669,0,0,0,.193.494.669.669,0,0,0,.494.193.669.669,0,0,0,.494-.193.669.669,0,0,0,.193-.494Zm-9.625,0a.669.669,0,0,0-.193-.494.669.669,0,0,0-.494-.193.669.669,0,0,0-.494.193.669.669,0,0,0-.193.494v4.813a.669.669,0,0,0,.193.494.669.669,0,0,0,.494.193.669.669,0,0,0,.494-.193.669.669,0,0,0,.193-.494Z" transform="translate(0 17.875)"/>
</svg>
